<?xml version="1.0" standalone="no"?><!DOCTYPE svg PUBLIC "-//W3C//DTD SVG 1.1//EN" "http://www.w3.org/Graphics/SVG/1.1/DTD/svg11.dtd"><svg t="1717590292309" class="icon" viewBox="0 0 1024 1024" version="1.1" xmlns="http://www.w3.org/2000/svg" p-id="3188" xmlns:xlink="http://www.w3.org/1999/xlink" width="64" height="64"><path d="M310.270194 180.238448C297.628219 151.703704 274.511464 117.389771 231.889947 111.249383 128.22575 96.440212 49.484303 204.438801 49.484303 263.675485c0 39.731922 31.785538 87.04903 53.818695 115.222575 48.039506-83.075838 123.891358-153.148501 206.967196-198.659612zM785.969665 112.69418c-42.260317 6.140388-65.377072 39.731922-78.019048 68.266667 83.075838 45.87231 158.56649 116.306173 206.605997 199.38201 22.033157-28.173545 54.179894-75.490653 54.179894-115.222575 0-58.875485-79.102646-167.235273-182.766843-152.426102zM508.568607 865.07231c-14.447972 0-101.135802 42.982716-160.372487-26.367548 17.337566 57.791887 118.473369 68.989065 160.372487 68.989065 44.066314 0 143.39612-11.197178 160.372486-68.989065-59.236684 69.711464-145.924515 26.367549-160.372486 26.367548zM404.904409 746.598942c0 44.427513 94.634215 76.57425 103.664198 74.045855 9.029982 2.528395 103.664198-29.618342 103.664197-74.045855 0-24.561552-76.57425-29.618342-103.664197-29.618342s-103.664198 5.05679-103.664198 29.618342zM345.667725 435.606349c-44.427513 0-177.710053 88.855026-177.710053 148.091711s71.87866 130.031746 133.28254 88.855026c44.427513-29.618342 118.473369-133.28254 118.473368-162.900881 0-40.81552-33.230335-74.045855-74.045855-74.045856z m14.809171 99.691005c-9.029982 5.417989-20.58836 5.417989-29.618342 0-9.029982-5.417989-14.809171-15.17037-14.809171-25.645149 0-10.47478 5.779189-20.22716 14.809171-25.64515 9.029982-5.417989 20.58836-5.417989 29.618342 0 9.029982 5.417989 14.809171 15.17037 14.809171 25.64515 0 10.47478-5.779189 20.22716-14.809171 25.645149zM671.469489 435.606349c-40.81552 0-74.045855 33.230335-74.045856 74.045856 0 29.618342 74.045855 133.28254 118.473369 162.900881 61.765079 41.17672 133.28254-29.618342 133.282539-88.855026 0-59.236684-133.28254-148.091711-177.710052-148.091711z m14.809171 99.691005c-9.029982 5.417989-20.58836 5.417989-29.618343 0-9.029982-5.417989-14.809171-15.17037-14.809171-25.645149 0-10.47478 5.779189-20.22716 14.809171-25.64515 9.029982-5.417989 20.58836-5.417989 29.618343 0 9.029982 5.417989 14.809171 15.17037 14.809171 25.64515 0 10.47478-5.779189 20.22716-14.809171 25.645149z" fill="#2C2C2C" p-id="3189"></path></svg>